<svg id="bcb12bfc-3cf5-43db-910d-584dc3d0e709" data-name="Слой 1" xmlns="http://www.w3.org/2000/svg"
  viewBox="0 0 1010.429 240.025">
  <defs>
    <clipPath id="aa5d7a42-e336-43d6-aff7-33285a84036f" transform="translate(10.429 -380.031)">
      <path style="fill:none" d="M.007 386.366h231.81v231.817H.007z" />
    </clipPath>
    <style>
      .b2b054a6-70be-4929-aa1d-1840422b7ba0 {
        fill: #32754b
      }

      .af6ede5f-a8e0-45cb-8550-1e1ca2146dc7 {
        fill: #fff
      }
    </style>
  </defs>
  <path class="b2b054a6-70be-4929-aa1d-1840422b7ba0"
    d="M969.202 389.693a15.941 15.941 0 0 0-4.798 11.655 16.126 16.126 0 0 0 4.771 11.733 16.436 16.436 0 0 0 23.316 0 16.651 16.651 0 0 0 0-23.388 16.404 16.404 0 0 0-23.29 0m25.192 25.238a19.105 19.105 0 0 1-27.093 0 18.605 18.605 0 0 1-5.554-13.583 19.127 19.127 0 1 1 32.647 13.583m-9.963-20.835a9.514 9.514 0 0 0-4.456-.783h-3.158v7.614h3.343a9.99 9.99 0 0 0 3.52-.468 3.245 3.245 0 0 0 2.166-3.283 3.207 3.207 0 0 0-1.415-3.08m-3.962-3.31a15.969 15.969 0 0 1 5.739.756q3.257 1.353 3.264 5.324a4.582 4.582 0 0 1-2.067 4.14 8.009 8.009 0 0 1-3.047 1.02 5.127 5.127 0 0 1 3.62 2.06 5.726 5.726 0 0 1 1.151 3.257v1.54c0 .487.014 1.007.053 1.566a3.406 3.406 0 0 0 .178 1.093l.131.263h-3.468c-.02-.073-.033-.138-.052-.21-.02-.067-.033-.152-.053-.238l-.072-.678v-1.665q0-3.652-1.988-4.823a8.921 8.921 0 0 0-4.12-.685h-2.921v8.299h-3.705v-21.02ZM371.653 403.36l5.106-8.772 6.746 19.69-34.063 58.254-6.594-16.716q3.84-7.453 3.843-18.538a45.544 45.544 0 0 0-2.744-16.709q-2.99-7.453-7.535-7.443-8.242 0-12.168 19.025-2.912 14.077-2.908 33.925 0 36.908 7.693 66.025 9.348 35.25 25.513 35.247 14.205 0 24.962-25.98l8.318 15.885q-18.923 62.722-47.567 62.716-22.368 0-36.109-32.602-13.267-31.282-13.26-78.93 0-48.646 14.517-85.051 17.344-43.355 40.19-43.355 16.406 0 26.06 23.33M433.501 442.74l-13.97 85.393h27.474Zm-5.804-58.412h29.272l33.753 205.027h5.81v25.81h-49.369v-25.81h9.339l-4.712-30.779h-37.28l-4.943 30.779h9.417v25.81h-31.792v-25.81h7.068ZM506.031 384.328h36.425l39.557 121.292v-95.146h-7.844v-26.146h30.061v26.146h-7.693v204.69h-19.472a301.913 301.913 0 0 0-8.082-30.113L528.32 459.62v129.735h9.345v25.81h-31.634v-25.81h7.85v-178.88h-7.85ZM662.7 415.272v169.45h3.382q13.02 0 18.755-32.266 3.92-22.17 3.929-55.273 0-81.911-23.783-81.911Zm-41.282-30.944h44.19q26.603 0 42.23 27.969 16.553 29.782 16.563 84.886 0 59.741-19.63 93.659-8.559 14.728-19.934 20.19-8.47 4.146-22.29 4.133h-41.13v-25.81h7.845v-178.88h-7.844ZM775.573 442.74l-13.97 85.393h27.474Zm-5.804-58.412h29.272l33.753 205.027h5.81v25.81h-49.369v-25.81h9.338l-4.712-30.779h-37.28l-4.949 30.779h9.424v25.81h-31.792v-25.81h7.061ZM848.102 384.328h36.419l39.564 121.292v-95.146h-7.851v-26.146h30.061v26.146h-7.686v204.69h-19.473a301.916 301.916 0 0 0-8.081-30.113L870.392 459.62v129.735h9.338v25.81h-31.628v-25.81h7.851v-178.88h-7.85Z"
    transform="translate(10.429 -380.031)" />
  <path class="b2b054a6-70be-4929-aa1d-1840422b7ba0" d="M10.429 6.342h231.817v231.817H10.429z" />
  <g style="clip-path:url(#aa5d7a42-e336-43d6-aff7-33285a84036f)">
    <path class="af6ede5f-a8e0-45cb-8550-1e1ca2146dc7"
      d="M73.82 441.869v32.983H59.512q-15.103 0-24.244 8.943-9.93 9.536-9.93 26.824 0 17.482 9.93 27.02 9.14 8.944 24.244 8.944h172.885v32.983H53.155q-27.422 0-45.5-20.071-18.084-20.059-18.084-48.876 0-28.617 18.084-48.685t45.5-20.065Z"
      transform="translate(10.429 -380.031)" />
    <path class="af6ede5f-a8e0-45cb-8550-1e1ca2146dc7"
      d="M110.39 620.056H83.527l9.377-158.098q1.313-16.465 5.403-22.69 4.916-7.631 16.874-7.628 17.195 0 20.308 25.5l8.193 66.869h.816l5.653-114.724q3.11-25.507 20.144-25.507 11.964 0 16.874 7.633 4.096 6.22 5.41 22.691l11.713 159.099h-26.863l-7.785-161.106 2.375 47.856-2.704-44.849-11.22 142.64a26.95 26.95 0 0 1-5.075 13.05q-3.77 4.817-9.009 4.817-5.083 0-9.009-4.817-3.939-5.024-5.08-13.05l-13.919-94.784h-.329Z"
      transform="translate(10.429 -380.031)" />
  </g>
  <path class="b2b054a6-70be-4929-aa1d-1840422b7ba0"
    d="M244.516 166.421h6.574v33.51h-6.574zM257.132 166.421h14.827v33.516h-14.827zM275.999 166.421h19.315v33.516h-19.315z" />
</svg>