<svg data-name="Слой 1" xmlns="http://www.w3.org/2000/svg" viewBox="0 0 1000 254.32">
  <g data-name="Layer_1">
    <path d="m450.37 578.74 49.58-99.97 49.59 99.97Z" transform="translate(0 -372.84)"
      style="fill-rule:evenodd;fill:#d42e12" />
    <path
      d="M972.59 548.25q0 44.84-19.48 62.24c-11.61 10.66-31.9 16.35-59.78 16.35-10.01 0-132.96.32-132.96.32-25.32-.27-42.5-3.6-53.2-11.71Q688 601.02 688 561.18V546h69.7v8.51a17.7 17.7 0 0 0 17.69 17.7h113.45a17.7 17.7 0 0 0 17.69-17.7v-11.34a17.69 17.69 0 0 0-17.7-17.7s-139.4.07-143 0c-22.43-.38-37.73-6.42-47-19.3a45.95 45.95 0 0 1-3.78-6.17q-9.74-17.66-9.76-48.25 0-44.84 19.47-62.24c11.62-10.66 31.9-16.35 59.8-16.35 10 0 132.95-.32 132.95-.32 25.32.27 42.5 3.6 53.2 11.71q19.18 14.43 19.18 54.27V454h-69.7v-8.51a17.7 17.7 0 0 0-17.7-17.7H769.05a17.7 17.7 0 0 0-17.7 17.7v11.34a17.7 17.7 0 0 0 17.7 17.7s139.4-.07 143.02 0c22.42.38 37.72 6.42 47 19.3a46.27 46.27 0 0 1 3.77 6.17q9.74 17.66 9.76 48.25Zm-426.3-174.6h-92.67l-125.44 253.2h73.7l98.07-197.71 98.07 197.7h73.7Zm-480.3 0H0v253.2h65.99v-96.43h36.22l104.22 96.42h103.88L162.55 498.92l133.11-125.26h-97.59l-95.86 95.3H66Zm932 13.8a11.77 11.77 0 1 1-11.79-11.78A11.78 11.78 0 0 1 998 387.45Zm-25.55 0a13.78 13.78 0 1 0 13.76-13.8 13.77 13.77 0 0 0-13.76 13.8Zm15.98-1.3a2.69 2.69 0 0 1-1.78.58h-3.16v-4.42h3.16a2.62 2.62 0 0 1 1.78.59 2.11 2.11 0 0 1 .63 1.64 2.08 2.08 0 0 1-.63 1.61Zm0 2.11a3.62 3.62 0 0 0 2.03-1.36 3.85 3.85 0 0 0 .76-2.4 3.92 3.92 0 0 0-1.23-3.02 4.53 4.53 0 0 0-3.17-1.1h-5.48v14.13h2.15v-5.95h2.67l3 5.95h2.5l-3.23-6.25Z"
      transform="translate(0 -372.84)" style="fill:#003896;fill-rule:evenodd" />
  </g>
</svg>