<svg id="a8eb1c3a-0049-43fd-9c95-b7a038418bc9" data-name="Слой 1" xmlns="http://www.w3.org/2000/svg"
  viewBox="0 0 1000 277.997">
  <defs>
    <style>
      .b60ceb55-a168-4f3a-9e51-a8aed66c20ef {
        fill: #1d5579
      }
    </style>
  </defs>
  <path class="b60ceb55-a168-4f3a-9e51-a8aed66c20ef"
    d="M148.514 478.29v41.473a11.565 11.565 0 0 0 23.13 0V477.46a54.13 54.13 0 0 0-108.26 0v100.153a4.214 4.214 0 0 1-4.251 4.232c-5.26 0-36.003-34.785-36.003-82.084 0-63.68 51.972-115.63 115.62-115.63a161.064 161.064 0 0 1 21.345 1.784 11.561 11.561 0 0 0 1.774-22.983A139.112 139.112 0 0 0 138.76 361C62.587 361.001 0 423.515 0 499.771c0 71.45 54.996 117.395 69.685 117.395a16.801 16.801 0 0 0 16.83-16.8V477.462a31.035 31.035 0 0 1 31.026-31.005c17.492 0 30.973 14.752 30.973 31.834"
    transform="translate(0 -361.001)" />
  <path class="b60ceb55-a168-4f3a-9e51-a8aed66c20ef"
    d="M207.826 382.35a16.812 16.812 0 0 0-16.83 16.82v122.885a31.039 31.039 0 0 1-31.037 31.015c-17.481 0-30.962-14.751-30.962-31.844v-41.463a11.56 11.56 0 1 0-23.12 0v42.292a54.124 54.124 0 1 0 108.249 0V421.9a4.22 4.22 0 0 1 4.263-4.22c5.26 0 35.992 34.773 35.992 82.084 0 63.679-51.972 115.619-115.63 115.619a161.28 161.28 0 0 1-21.346-1.785 11.569 11.569 0 0 0-1.774 22.994 139.225 139.225 0 0 0 23.11 1.921c76.183 0 138.77-62.503 138.77-138.76 0-71.448-54.996-117.404-69.685-117.404M419.622 490.064c0-14.184-6.971-22.973-17.922-22.973-11.277 0-18.227 8.789-18.227 22.973v92.878h-50.429v-92.878c0-42.218 23.897-73.622 68.656-73.622 44.454 0 68.34 31.404 68.34 73.622v92.878h-50.418ZM492.575 499.524c0-46.607 38.48-85.108 82.274-85.108 44.108 0 82.588 38.501 82.588 85.108 0 46.943-38.48 85.444-82.588 85.444-43.793 0-82.274-38.501-82.274-85.444m50.429 0c0 18.92 13.597 34.448 31.845 34.448 18.584 0 31.834-15.528 31.834-34.448 0-18.573-13.25-34.459-31.834-34.459-18.248 0-31.845 15.886-31.845 34.459M739.028 584.927c-28.527 0-36.15-22.248-42.46-46.228l-32.495-122.256H716.8l22.227 107.063h.672l20.883-107.063h53.736L778.831 538.7c-5.974 20.61-13.607 46.228-39.803 46.228M946.656 506.027c0-28.737-13.272-42.932-37.147-42.932-18.92 0-36.15 15.214-36.15 35.499 0 25.02 17.902 37.525 34.816 37.525a67.161 67.161 0 0 0 25.21-4.736v44.287c-9.618 7.097-20.894 9.47-35.814 9.47-33.504 0-76.625-29.072-76.625-85.192 0-48.685 36.822-85.538 87.565-85.538 49.757 0 90.547 27.393 90.547 79.112v89.424h-52.402ZM345.939 629.906a7.214 7.214 0 0 1-4.851 1.449h-4.032v7.098h-4.021v-19.718h8.315a6.606 6.606 0 0 1 4.578 1.522 6.007 6.007 0 0 1 1.711 4.725q0 3.48-1.7 4.924m-3.087-7.098a3.2 3.2 0 0 0-2.153-.661h-3.643v5.816h3.643a3.06 3.06 0 0 0 2.153-.713 2.91 2.91 0 0 0 .766-2.247 2.742 2.742 0 0 0-.766-2.195"
    transform="translate(0 -361.001)" />
  <path class="b60ceb55-a168-4f3a-9e51-a8aed66c20ef" d="M372.178 257.727h4.042v16.169h9.67v3.549h-13.712v-19.718z" />
  <path class="b60ceb55-a168-4f3a-9e51-a8aed66c20ef"
    d="M409.906 618.728h4.116v12.117a7.015 7.015 0 0 0 .462 2.95c.493 1.113 1.554 1.67 3.202 1.67 1.638 0 2.688-.557 3.182-1.67a6.82 6.82 0 0 0 .472-2.95v-12.117h4.116v12.127a10.25 10.25 0 0 1-.956 4.883q-1.795 3.212-6.814 3.212-5.024 0-6.824-3.212a10.25 10.25 0 0 1-.956-4.883ZM463.48 618.728h5.827v19.719h-3.78v-13.345c0-.378 0-.914.01-1.606.01-.694.021-1.219.021-1.597l-3.674 16.548h-3.938l-3.643-16.548c0 .378.01.903.021 1.597.01.692.01 1.228.01 1.606v13.345h-3.78v-19.719h5.901l3.528 15.498ZM508.786 620.828a5.116 5.116 0 0 1 .882 3.003 4.503 4.503 0 0 1-.892 2.918 4.892 4.892 0 0 1-1.47 1.123 4.233 4.233 0 0 1 2.226 1.733 5.28 5.28 0 0 1 .756 2.887 5.927 5.927 0 0 1-.85 3.15 5.717 5.717 0 0 1-1.376 1.544 5.316 5.316 0 0 1-2.194.997 13.177 13.177 0 0 1-2.74.263h-8.726v-19.718h9.366c2.362.041 4.031.735 5.018 2.1m-10.52 1.322v4.347h4.714a3.8 3.8 0 0 0 2.037-.483 1.851 1.851 0 0 0 .788-1.732 1.759 1.759 0 0 0-1.03-1.816 7.052 7.052 0 0 0-2.299-.316Zm0 7.612v5.26h4.704a4.564 4.564 0 0 0 1.963-.346 2.512 2.512 0 0 0 1.27-2.467 2.12 2.12 0 0 0-1.228-2.11 4.79 4.79 0 0 0-1.942-.337Z"
    transform="translate(0 -361.001)" />
  <path class="b60ceb55-a168-4f3a-9e51-a8aed66c20ef"
    d="M534.732 257.724h4.021v19.718h-4.021zM563.762 257.727h4.242l7.696 13.744v-13.744h3.759v19.718h-4.042l-7.875-13.985v13.985h-3.78v-19.718z" />
  <path class="b60ceb55-a168-4f3a-9e51-a8aed66c20ef"
    d="M617.575 624.881a3.824 3.824 0 0 0-2.247-2.813 5.263 5.263 0 0 0-2.226-.452 4.784 4.784 0 0 0-3.843 1.806 8.255 8.255 0 0 0-1.501 5.396c0 2.416.546 4.137 1.627 5.135a5.308 5.308 0 0 0 3.707 1.512 4.793 4.793 0 0 0 3.338-1.187 5.216 5.216 0 0 0 1.607-3.118h-4.483v-3.286h8.063v10.573h-2.677l-.41-2.457a9.145 9.145 0 0 1-2.1 1.963 7.374 7.374 0 0 1-3.947 1.008 8.131 8.131 0 0 1-6.3-2.72 10.445 10.445 0 0 1-2.562-7.464 11.047 11.047 0 0 1 2.583-7.665 8.747 8.747 0 0 1 6.846-2.898 8.877 8.877 0 0 1 5.942 1.911 7.142 7.142 0 0 1 2.573 4.756ZM678.457 632.359a4.124 4.124 0 0 0 .735 2.027 4.318 4.318 0 0 0 3.444 1.207 7.167 7.167 0 0 0 2.383-.325 2.28 2.28 0 0 0 1.732-2.279 1.692 1.692 0 0 0-.85-1.512 8.593 8.593 0 0 0-2.688-.924l-2.1-.472a12.815 12.815 0 0 1-4.242-1.502 4.852 4.852 0 0 1-1.963-4.283 5.72 5.72 0 0 1 1.91-4.39 8.102 8.102 0 0 1 5.629-1.752 8.442 8.442 0 0 1 5.291 1.659 5.862 5.862 0 0 1 2.29 4.787h-3.886a2.797 2.797 0 0 0-1.564-2.53 5.297 5.297 0 0 0-2.404-.494 4.516 4.516 0 0 0-2.562.641 2.04 2.04 0 0 0-.956 1.795 1.679 1.679 0 0 0 .945 1.575 11.063 11.063 0 0 0 2.573.82l3.39.807a8.7 8.7 0 0 1 3.36 1.439 4.874 4.874 0 0 1 1.723 4.021 5.685 5.685 0 0 1-2.048 4.494 8.561 8.561 0 0 1-5.795 1.785 9.332 9.332 0 0 1-6.017-1.764 5.852 5.852 0 0 1-2.194-4.83ZM729.696 636.7a9.924 9.924 0 0 1-12.704 0c-1.964-1.89-2.94-4.6-2.94-8.148q0-5.402 2.94-8.127a9.924 9.924 0 0 1 12.704 0q2.93 2.725 2.93 8.127c0 3.549-.977 6.257-2.93 8.147m-2.53-3.003a10.007 10.007 0 0 0 0-10.268 4.593 4.593 0 0 0-3.812-1.816 4.672 4.672 0 0 0-3.853 1.816 10.006 10.006 0 0 0 0 10.268 4.662 4.662 0 0 0 3.853 1.807 4.584 4.584 0 0 0 3.812-1.807"
    transform="translate(0 -361.001)" />
  <path class="b60ceb55-a168-4f3a-9e51-a8aed66c20ef" d="M757.002 257.727h4.042v16.169h9.67v3.549h-13.712v-19.718z" />
  <path class="b60ceb55-a168-4f3a-9e51-a8aed66c20ef"
    d="M794.73 618.728h4.115v12.117a7.015 7.015 0 0 0 .462 2.95c.494 1.113 1.554 1.67 3.202 1.67 1.638 0 2.688-.557 3.182-1.67a6.82 6.82 0 0 0 .472-2.95v-12.117h4.116v12.127a10.116 10.116 0 0 1-.966 4.883q-1.78 3.212-6.804 3.212t-6.824-3.212a10.25 10.25 0 0 1-.956-4.883Z"
    transform="translate(0 -361.001)" />
  <path class="b60ceb55-a168-4f3a-9e51-a8aed66c20ef"
    d="M849.528 257.727v3.486h-5.796v16.232h-4.074v-16.232h-5.816v-3.486h15.686zM872.855 257.724h4.021v19.718h-4.021z" />
  <path class="b60ceb55-a168-4f3a-9e51-a8aed66c20ef"
    d="M916.865 636.7a9.924 9.924 0 0 1-12.705 0c-1.963-1.89-2.94-4.6-2.94-8.148q0-5.402 2.94-8.127a9.924 9.924 0 0 1 12.705 0q2.929 2.725 2.929 8.127c0 3.549-.976 6.257-2.93 8.147m-2.53-3.003a10.007 10.007 0 0 0 0-10.268 4.593 4.593 0 0 0-3.811-1.816 4.672 4.672 0 0 0-3.853 1.816 10.006 10.006 0 0 0 0 10.268 4.662 4.662 0 0 0 3.853 1.807 4.584 4.584 0 0 0 3.811-1.807"
    transform="translate(0 -361.001)" />
  <path class="b60ceb55-a168-4f3a-9e51-a8aed66c20ef"
    d="M944.104 257.727h4.242l7.696 13.744v-13.744h3.759v19.718h-4.042l-7.875-13.985v13.985h-3.78v-19.718z" />
  <path class="b60ceb55-a168-4f3a-9e51-a8aed66c20ef"
    d="M987.81 632.359a4.124 4.124 0 0 0 .735 2.027 4.318 4.318 0 0 0 3.444 1.207 7.167 7.167 0 0 0 2.383-.325 2.28 2.28 0 0 0 1.733-2.279 1.692 1.692 0 0 0-.85-1.512 8.614 8.614 0 0 0-2.678-.924l-2.11-.472a12.815 12.815 0 0 1-4.242-1.502 4.852 4.852 0 0 1-1.964-4.283 5.72 5.72 0 0 1 1.911-4.39 8.102 8.102 0 0 1 5.628-1.752 8.442 8.442 0 0 1 5.292 1.659 5.862 5.862 0 0 1 2.289 4.787h-3.885a2.797 2.797 0 0 0-1.565-2.53 5.297 5.297 0 0 0-2.404-.494 4.516 4.516 0 0 0-2.562.641 2.04 2.04 0 0 0-.955 1.795 1.679 1.679 0 0 0 .945 1.575 11.063 11.063 0 0 0 2.572.82l3.391.807a8.7 8.7 0 0 1 3.36 1.439 4.874 4.874 0 0 1 1.722 4.021 5.685 5.685 0 0 1-2.047 4.494 8.561 8.561 0 0 1-5.796 1.785 9.332 9.332 0 0 1-6.016-1.764 5.852 5.852 0 0 1-2.195-4.83Z"
    transform="translate(0 -361.001)" />
</svg>