<svg id="b7d22049-6041-4aba-b01c-2b83db67d602" data-name="Слой 1" xmlns="http://www.w3.org/2000/svg"
  viewBox="0 0 1000 536.554">
  <defs>
    <style>
      .a453b8d6-5bbe-4712-865a-3ad58dd64f01,
      .bc54e0fe-7dab-468e-8f08-891c6e64dfbd {
        fill: #008dc9
      }

      .bc54e0fe-7dab-468e-8f08-891c6e64dfbd {
        fill-rule: evenodd
      }
    </style>
  </defs>
  <path class="bc54e0fe-7dab-468e-8f08-891c6e64dfbd"
    d="M19.937 632.915h769.719c5.713 0 10.363 2.895 10.363 6.47 0 3.574-4.65 6.482-10.363 6.482H19.937c-5.726 0-9.915-2.908-9.915-6.483 0-3.574 4.189-6.47 9.915-6.47M19.937 755.313h769.77c5.726 0 10.363 2.908 10.363 6.482s-4.637 6.482-10.363 6.482H19.937c-5.726 0-10.364-2.908-10.364-6.482s4.638-6.482 10.364-6.482"
    transform="translate(0 -231.723)" />
  <path class="a453b8d6-5bbe-4712-865a-3ad58dd64f01"
    d="M415.077 404.359h28.951c12.67 0 21.753-3.421 28.645-9.531 6.943-6.38 10.197-13.887 10.197-23.661 0-11.67-3.664-19.318-9.685-24.635-5.906-5.406-15.052-9.057-29.157-9.057h-28.951Zm-107.954-111.53c0-15.013 5.021-28.271 15.744-38.392a54.105 54.105 0 0 1 38.24-15.013h98.23c38.342 0 70.727 11.887 96.066 36.483 25.903 24.417 38.38 56.61 38.38 95.26 0 79.924-52.254 131.243-131.974 131.243h-46.732v58.505c0 35.012-18.998 55.829-53.97 55.829s-53.984-20.817-53.984-55.829ZM615.585 292.348c0-35.023 19.011-55.828 53.984-55.828s53.97 20.818 53.97 55.828l.013 60.773 85.869-92.222c13.925-14.822 29.887-24.379 47.744-24.379 26.928 0 53.971 24.392 53.971 51.934 0 15.693-7.802 29.593-19.946 41.57l-85.958 85.151 151.304 173.826c14.694 15.783 25.814 31.886 25.814 47.31 0 32.128-24.955 52.907-55.957 52.907-13.233 0-25.352-5.317-36.33-14.207-5.74-4.445-13.733-12.67-23.571-23.66l-142.94-167.344-.013 76.901c0 35.01-18.998 55.828-53.97 55.828s-53.984-20.804-53.984-55.828Z"
    transform="translate(0 -231.723)" />
  <path class="bc54e0fe-7dab-468e-8f08-891c6e64dfbd"
    d="M966.577 301.211a33.35 33.35 0 0 1-33.512-33.346 31.956 31.956 0 0 1 9.787-23.494 33.589 33.589 0 0 1 47.348 0 31.92 31.92 0 0 1 9.8 23.494 33.372 33.372 0 0 1-33.423 33.346m0-6.277a26.966 26.966 0 0 0 27.133-27.07 25.722 25.722 0 0 0-7.968-19.06 26.008 26.008 0 0 0-19.165-7.917 26.41 26.41 0 0 0-19.343 7.916 25.884 25.884 0 0 0-7.879 19.062 26.264 26.264 0 0 0 7.879 19.241 26.53 26.53 0 0 0 19.343 7.828m7.879-24.11 8.75 15.155h-8.225l-8.058-15.155h-7.084v15.155h-7.084v-35.87h17.499q7.09 0 9.8 1.654c2.793 1.742 4.202 4.842 4.202 9.313q0 9.05-9.8 9.748m-14.617-5.393h10.582c4.56 0 6.828-1.806 6.828-5.393a4.062 4.062 0 0 0-2.972-4.176 18.76 18.76 0 0 0-5.688-.615h-8.75Z"
    transform="translate(0 -231.723)" />
  <path class="a453b8d6-5bbe-4712-865a-3ad58dd64f01"
    d="M13.707 512.016c9.723-11.401 22.739-17.076 37.804-17.076a29.793 29.793 0 0 1 6.585 1.063l7.327 2.05 25.199 7.711c21.688 6.38 37.137 9.122 47.27 9.122 24.238 0 28.465-7.815 28.465-18.614 0-4.983-2.062-10.069-12.58-15.001-3.523-1.601-21.342-7.469-53.701-17.883-54.637-17.295-94.157-42.3-94.157-106.75 0-37.292 12.964-68.267 39.392-91.327 26.44-22.764 60.568-33.588 100.985-33.588 31.796 0 58.48 4.829 79.053 15.718 21.189 11.004 34.653 27.684 34.653 50.332 0 13.823-4.471 26.365-13.695 36.356-9.518 9.877-21.995 14.617-35.843 14.617-6.777 0-19.216-2.754-34.806-6.827-15.411-4.433-26.416-6.317-33.308-6.317-8.634 0-14.22 1.935-18.127 4.882-3.202 2.523-4.42 5.175-4.42 9.351 0 1.128.577 4.497 9.173 8.48.653.372 18.268 6.483 56.161 18.576 27.095 8.8 48.91 20.215 64.155 34.883 21.022 20.33 30.95 47.617 30.95 80.13 0 88.405-66.69 129.77-148.268 129.77-28.952 0-56.238-4.996-81.693-15.091C21.406 595.054 0 577.401 0 550.768c0-14.669 4.42-27.863 13.707-38.752"
    transform="translate(0 -231.723)" />
  <path class="bc54e0fe-7dab-468e-8f08-891c6e64dfbd"
    d="M29.893 700.24h8.468q13.47 0 13.49-11.491c0-7.533-4.51-11.324-13.49-11.324h-8.468Zm0 32.82c0 9.352-3.305 14.002-9.89 14.002-6.558 0-9.876-4.65-9.876-14.002v-59.914c0-5.124.999-8.724 3.023-10.774 1.998-2.088 5.534-3.113 10.607-3.113H41.59q14.278 0 22.777 7.507 8.936 7.86 8.93 21.983 0 13.99-8.046 21.701-8.032 7.743-22.072 7.724H29.893ZM98.93 733.088q0 13.99-9.865 13.977c-6.585 0-9.903-4.65-9.903-13.977v-60.85c0-9.377 3.318-14.053 9.903-14.053s9.864 4.676 9.864 14.053ZM124.565 700.24h8.468q13.47 0 13.49-11.491c0-7.533-4.51-11.324-13.49-11.324h-8.468Zm0 32.82c0 9.352-3.28 14.002-9.864 14.002s-9.902-4.65-9.902-14.002v-59.914c0-5.124.999-8.724 3.023-10.774 1.999-2.088 5.534-3.113 10.607-3.113h17.832q14.278 0 22.777 7.507 8.936 7.86 8.93 21.983c0 9.326-2.652 16.564-8.02 21.701-5.355 5.162-12.746 7.724-22.098 7.724h-13.285ZM209.712 660.375q14.027 0 14.027 9.236 0 9.032-14.053 9.044h-16.09v15.63h13.887q14.085 0 14.066 9.146c0 6.11-4.676 9.122-14.066 9.122h-13.887v16.23h16.692c9.377 0 14.053 3.024 14.053 9.12q0 9.168-14.053 9.16h-23.046q-7.494 0-10.35-2.42c-2.025-1.807-3.024-5.138-3.024-10.018v-60.389c0-5.111 1-8.698 2.998-10.786 1.998-2.05 5.56-3.075 10.632-3.075Z"
    transform="translate(0 -231.723)" />
  <path class="a453b8d6-5bbe-4712-865a-3ad58dd64f01"
    d="M287.729 739.817c-5.188 4.855-11.978 7.25-20.356 7.25-6.226 0-11.35-1.883-15.424-5.649a18.65 18.65 0 0 1-6.11-14.258q0-12.528 14.86-19.818a21.748 21.748 0 0 1-5.765-9.903 14.654 14.654 0 0 1-.397-3.305 13.285 13.285 0 0 1 5.931-11.35 21.289 21.289 0 0 1 12.695-3.753 20.602 20.602 0 0 1 12.862 3.984 13.97 13.97 0 0 1 5.778 11.747q0 9.666-10.915 16.487l8.698 10.467c2.357-2.908 3.87-4.714 4.56-5.394 2.256-2.229 4.254-3.369 5.983-3.369a5.002 5.002 0 0 1 3.972 1.832 6.21 6.21 0 0 1 1.562 4.215c0 2.83-2.703 6.738-8.147 11.747q5.592 6.418 5.585 9.62a5.917 5.917 0 0 1-1.742 4.382 5.823 5.823 0 0 1-4.394 1.767c-2.331 0-5.419-2.215-9.236-6.699m-7.584-9.403-11.747-13.554c-3.856 1.691-6.329 4.049-7.443 7.047a8.804 8.804 0 0 0 1.883 9.095 8.649 8.649 0 0 0 6.213 2.305 15.23 15.23 0 0 0 8.353-2.792 19.604 19.604 0 0 0 2.741-2.1m-7.187-27.864q7.187-2.863 7.187-7.789a5.07 5.07 0 0 0-2.024-3.958 6.822 6.822 0 0 0-4.304-1.538 6.208 6.208 0 0 0-4.087 1.397 4.868 4.868 0 0 0-1.793 3.843c0 2.203 1.652 4.881 5.021 8.045"
    transform="translate(0 -231.723)" />
  <path class="bc54e0fe-7dab-468e-8f08-891c6e64dfbd"
    d="M360.36 659.261q14.065 0 14.052 9.237 0 9.07-14.053 9.07h-16.077v15.603h13.887c9.377 0 14.053 3.049 14.053 9.185q0 9.108-14.053 9.122h-13.887v21.61q0 13.99-9.877 13.977c-6.584 0-9.89-4.65-9.89-14.002v-59.915c0-5.137 1-8.724 3.024-10.773 1.998-2.089 5.534-3.114 10.607-3.114ZM400.051 733.088q0 13.99-9.864 13.977c-6.584 0-9.902-4.65-9.902-13.977v-60.85c0-9.377 3.318-14.053 9.902-14.053s9.864 4.676 9.864 14.053ZM427.283 677.57h-7.303c-9.351 0-14.053-3.023-14.053-9.07q0-9.242 14.053-9.236h34.371c9.352 0 14.053 3.075 14.053 9.237 0 6.046-4.701 9.07-14.053 9.07h-7.34v55.495q0 13.99-9.865 14.002-9.876 0-9.863-14.002ZM495.606 677.57h-7.263q-14.086 0-14.066-9.07 0-9.242 14.027-9.236h34.358q14.085 0 14.066 9.237 0 9.07-14.028 9.07h-7.327v55.495q0 13.99-9.903 14.002-9.877 0-9.864-14.002ZM562.362 733.088c0 9.327-3.306 13.977-9.865 13.977q-9.877 0-9.89-13.977v-60.85q0-14.065 9.89-14.053c6.56 0 9.865 4.676 9.865 14.053ZM587.997 732.575c0 9.352-3.306 14.002-9.89 14.002q-9.896 0-9.877-13.976v-61.593c0-8.813 3.062-13.195 9.16-13.195 3.766 0 7.238 2.101 10.44 6.355l36.497 48.218v-40.545q0-14.027 9.89-14.028 9.877 0 9.864 14.028v62.925c0 8.212-3.01 12.299-9.031 12.299q-5.861 0-11.325-7.188l-35.728-47.193ZM710.583 710.734h-6.956c-9.275 0-13.887-3.049-13.887-9.16 0-6.187 4.612-9.261 13.861-9.261h14.54c4.817 0 8.301 1.025 10.517 3.049 2.204 2.024 3.318 5.419 3.318 10.158 0 12.311-3.69 22.265-10.991 29.875q-11.107 11.682-29.503 11.67-19.216 0-30.68-13.63-10.839-12.798-10.839-32.334 0-20.676 11.491-33.115 11.837-12.74 32.334-12.747a49.814 49.814 0 0 1 19.703 4.048c8.16 3.46 12.208 8.135 12.208 14.002a9.751 9.751 0 0 1-2.421 6.444 7.643 7.643 0 0 1-5.97 2.857c-1.14 0-4.445-1.397-9.915-4.215-5.483-2.83-10.21-4.227-14.207-4.227q-10.818 0-16.654 8.16c-3.42 4.753-5.098 10.889-5.098 18.447q0 11.338 4.983 18.793 5.822 8.628 16.628 8.609c5.252 0 9.467-1.601 12.695-4.792 3.216-3.189 4.843-7.378 4.843-12.631M799.522 717.89q0 13.893-10.12 21.868-9.281 7.32-23.533 7.302a50.216 50.216 0 0 1-16.91-2.908q-11.107-3.843-11.12-11.004a8.24 8.24 0 0 1 2.857-6.624 10.315 10.315 0 0 1 6.905-2.241c1.704 0 4.958.742 9.8 2.241 4.83 1.512 8.583 2.255 11.273 2.255a10.094 10.094 0 0 0 6.892-2.472 8.168 8.168 0 0 0 2.883-6.483c0-3.446-1.768-6.213-5.304-8.262a49.82 49.82 0 0 0-9.838-3.716q-11.933-3.573-17.217-7.916-7.283-6.13-7.277-16.718 0-12.874 9.467-20.445 8.82-7.053 21.983-7.046a40.3 40.3 0 0 1 14.655 2.575c5.995 2.331 9.019 5.752 9.019 10.235 0 5.585-2.972 8.417-8.904 8.417a29.552 29.552 0 0 1-7.699-1.55 31.143 31.143 0 0 0-7.776-1.512 11.614 11.614 0 0 0-6.559 1.743 6.372 6.372 0 0 0-3.087 5.7c0 3.536 3.856 6.533 11.555 8.929l4.164 1.306q12.048 3.768 18.126 10.441a22.767 22.767 0 0 1 5.765 15.885"
    transform="translate(0 -231.723)" />
</svg>