<svg data-name="Слой 1" xmlns="http://www.w3.org/2000/svg" viewBox="0 0 999.9 164">
  <defs>
    <linearGradient id="b" x1="121.19" y1="518.96" x2="266.19" y2="521.78"
      gradientTransform="matrix(1 0 0 -1 -.1 584.5)" gradientUnits="userSpaceOnUse">
      <stop offset="0" stop-color="#157a15" />
      <stop offset="1" stop-color="#0cba00" />
    </linearGradient>
    <clipPath id="a" transform="translate(-.1 -415.5)">
      <path
        d="M109.6 543.8c33.1-24.7 76.9-13.7 108.6-12.9a150.2 150.2 0 0 0 24-1.2c10.4-1.5 20.3-4.5 27.2-10a158.67 158.67 0 0 1-3-31.4c0-20.9 3.6-39.5 9.3-51.7a2.96 2.96 0 0 0-.3-.4c-43.2 35.2-94.6-20.8-146.5 26.2a6.11 6.11 0 0 0-2 3.9c0 .1-12.2 55.1-17.3 77.5"
        style="fill:none" />
    </clipPath>
  </defs>
  <path
    d="M428.8 160.3c-1-.5-2.1-1-3.1-1.6a22.03 22.03 0 0 1-3.2-2.1 38.76 38.76 0 0 1-3.1-2.6 31.25 31.25 0 0 1-3-3.2l-11.2-12.9-11.6-13.6q-29.55-34.95-59.2-69.8l-10.8-12.8c-.2-.2-.4-.4-.6-.4a3.73 3.73 0 0 0-1.2-.2 4.87 4.87 0 0 0-2.5.6v120.8h-34.6V39.2l.3-.9a35.47 35.47 0 0 1 1.2-6.5 36.08 36.08 0 0 1 2.7-6.7 35.23 35.23 0 0 1 8.8-10.5 48.12 48.12 0 0 1 5.5-3.7 56.27 56.27 0 0 1 6.1-2.7 37.45 37.45 0 0 1 6.4-1.6 36.57 36.57 0 0 1 6.5-.6 36.99 36.99 0 0 1 15 3.1 28.65 28.65 0 0 1 7.1 4.3 32.06 32.06 0 0 1 5.7 5.9l92.5 108.8a4.37 4.37 0 0 0 1 .6l.5.2h.3a2.72 2.72 0 0 0 1.7-.6c.2-.2.4-.3.5-.5l.1-.3V5.4h34.8v125.2a34 34 0 0 1-1.4 7.2 31.93 31.93 0 0 1-2.8 6.6 36.71 36.71 0 0 1-3.8 5.6 41.57 41.57 0 0 1-4.6 4.8 33.6 33.6 0 0 1-5.4 3.9 38.11 38.11 0 0 1-6.1 2.9 37.3 37.3 0 0 1-13.2 2.4 35.76 35.76 0 0 1-7.7-.9 27.69 27.69 0 0 1-4.1-1.2 22.12 22.12 0 0 1-3.5-1.6M818 72.6h116.5a18 18 0 0 0 6.9-1.3 23.86 23.86 0 0 0 3.2-1.6 25.6 25.6 0 0 0 2.6-2 13.15 13.15 0 0 0 2.2-2.5 27.55 27.55 0 0 0 1.7-2.9 11.76 11.76 0 0 0 1-3 16.86 16.86 0 0 0 .3-3.3 16.55 16.55 0 0 0-.3-3.2 14.19 14.19 0 0 0-1-2.9 18.38 18.38 0 0 0-4.1-5.4 18.6 18.6 0 0 0-2.8-2.1 23.87 23.87 0 0 0-3.2-1.6 15.36 15.36 0 0 0-3.5-1 21.32 21.32 0 0 0-3.7-.3H818Zm138.7 29.5c14.5 19.1 28.8 38.4 43.2 57.5h-43.6l-39.1-52.2h-99.3v52.2h-34.6V5h150.6a52.72 52.72 0 0 1 29.2 8.4 57.92 57.92 0 0 1 9.8 7.8 52.08 52.08 0 0 1 7.6 10.2 50 50 0 0 1 6.6 24.7 48.23 48.23 0 0 1-9.4 28.8 54.37 54.37 0 0 1-6.8 7.7 51.2 51.2 0 0 1-14.2 9.5ZM554.9 140.6a62.55 62.55 0 0 1-8-9.7 74.56 74.56 0 0 1-6.1-11.1 63.68 63.68 0 0 1-5.1-25.4V5h34.8v89.4a29.17 29.17 0 0 0 2.4 11.7 29.95 29.95 0 0 0 2.9 5.3 33.83 33.83 0 0 0 3.7 4.6 32.34 32.34 0 0 0 4.5 3.8 29.03 29.03 0 0 0 5.2 2.9 28.1 28.1 0 0 0 5.6 1.8 29.64 29.64 0 0 0 6.2.6h63.5a29.07 29.07 0 0 0 6-.6 31.3 31.3 0 0 0 5.7-1.8 29.95 29.95 0 0 0 5.3-2.9 33.84 33.84 0 0 0 4.6-3.7 32.34 32.34 0 0 0 3.8-4.5 42.12 42.12 0 0 0 2.9-5.1 28.01 28.01 0 0 0 2.4-11.6V5.1H730v89.4a63.68 63.68 0 0 1-5.1 25.4 66.49 66.49 0 0 1-6.1 11.1 68.8 68.8 0 0 1-8 9.7 66.06 66.06 0 0 1-20.6 13.9 67.59 67.59 0 0 1-12.3 3.9 63.97 63.97 0 0 1-13.1 1.3h-63.9a63.68 63.68 0 0 1-25.4-5.1 60.86 60.86 0 0 1-11-6 76.04 76.04 0 0 1-9.6-8.1M221.2 127.8a54 54 0 0 1-2 3.1 64.3 64.3 0 0 1-17.5 17.5 74.05 74.05 0 0 1-11.1 6 64.51 64.51 0 0 1-25.5 5.1h-61.7l3.6-16c13.6-9.9 24.7-14.8 36.6-17.1a115.2 115.2 0 0 1 17.2-1.7h6.1c5.9 0 12.3.3 19.5.7l1.5.1c13.1 1.2 23.8 2.1 33.3 2.3m-156 31.8a64.51 64.51 0 0 1-25.5-5.1 74.05 74.05 0 0 1-11.1-6 67.28 67.28 0 0 1-9.6-7.9 71.95 71.95 0 0 1-7.9-9.6 74.05 74.05 0 0 1-6-11.1A64.51 64.51 0 0 1 0 94.4V70.1a63.9 63.9 0 0 1 5.1-25.3 74.04 74.04 0 0 1 6-11.1 64.3 64.3 0 0 1 17.5-17.5 74.05 74.05 0 0 1 11.1-6 64.51 64.51 0 0 1 25.5-5.1h99.9a64.51 64.51 0 0 1 25.5 5.1 74.05 74.05 0 0 1 11.1 6c.3.2.6.4 1 .7-15.6-2-28.9-3-44.7 1.1a82.76 82.76 0 0 0-21.4 9 87.9 87.9 0 0 0-16.9 12.7H65.2a29.77 29.77 0 0 0-11.9 2.4 29.02 29.02 0 0 0-5.2 2.9 40.24 40.24 0 0 0-4.5 3.7 33.84 33.84 0 0 0-3.7 4.6 29.95 29.95 0 0 0-2.9 5.3 31.29 31.29 0 0 0-1.8 5.7 29.07 29.07 0 0 0-.6 6v24.3a29.77 29.77 0 0 0 2.4 11.9 37.82 37.82 0 0 0 2.8 5.3A30 30 0 0 0 48 120a29.61 29.61 0 0 0 5.3 2.8 31.29 31.29 0 0 0 5.7 1.8 30.34 30.34 0 0 0 6.2.6h32.5l-8 34.8H65.2Z" />
  <g style="clip-path:url(#a)">
    <path style="fill:url(#b)" d="M109.5 0h166.1v128.3H109.5z" />
  </g>
</svg>