<svg width="16" height="20" viewBox="0 0 16 20" fill="none" xmlns="http://www.w3.org/2000/svg">
<path d="M8 0C5.38 0 3.25 2.13 3.25 4.75C3.25 7.32 5.26 9.4 7.88 9.49C7.96 9.48 8.04 9.48 8.1 9.49C8.12 9.49 8.13 9.49 8.15 9.49C8.16 9.49 8.16 9.49 8.17 9.49C10.73 9.4 12.74 7.32 12.75 4.75C12.75 2.13 10.62 0 8 0Z" fill="#838D98"/>
<path d="M13.0809 12.15C10.2909 10.29 5.74094 10.29 2.93094 12.15C1.66094 13 0.960938 14.15 0.960938 15.38C0.960938 16.61 1.66094 17.75 2.92094 18.59C4.32094 19.53 6.16094 20 8.00094 20C9.84094 20 11.6809 19.53 13.0809 18.59C14.3409 17.74 15.0409 16.6 15.0409 15.36C15.0309 14.13 14.3409 12.99 13.0809 12.15Z" fill="#838D98"/>
</svg>
