<svg width="19" height="19" viewBox="0 0 19 19" fill="none" xmlns="http://www.w3.org/2000/svg">
  <path
    d="M14.839 8.31248C14.4305 8.31248 14.1075 7.97998 14.1075 7.58098C14.1075 7.22948 13.756 6.49798 13.167 5.86148C12.5875 5.24398 11.951 4.88298 11.419 4.88298C11.0105 4.88298 10.6875 4.55048 10.6875 4.15148C10.6875 3.75248 11.02 3.41998 11.419 3.41998C12.369 3.41998 13.3665 3.93298 14.2405 4.85448C15.0575 5.71898 15.58 6.79248 15.58 7.57148C15.58 7.97998 15.2475 8.31248 14.839 8.31248Z"
    fill="#838D98" />
  <path
    d="M18.2688 8.3125C17.8603 8.3125 17.5373 7.98 17.5373 7.581C17.5373 4.2085 14.7918 1.4725 11.4288 1.4725C11.0203 1.4725 10.6973 1.14 10.6973 0.741C10.6973 0.342 11.0203 0 11.4193 0C15.5993 0 19.0003 3.401 19.0003 7.581C19.0003 7.98 18.6678 8.3125 18.2688 8.3125Z"
    fill="#838D98" />
  <path
    d="M8.5975 12.3025L6.84 14.06C6.4695 14.4305 5.8805 14.4305 5.5005 14.0695C5.396 13.965 5.2915 13.87 5.187 13.7655C4.2085 12.7775 3.325 11.742 2.5365 10.659C1.7575 9.576 1.1305 8.493 0.6745 7.4195C0.228 6.3365 0 5.301 0 4.313C0 3.667 0.114 3.0495 0.342 2.4795C0.57 1.9 0.931 1.368 1.4345 0.893C2.0425 0.2945 2.7075 0 3.4105 0C3.6765 0 3.9425 0.057 4.18 0.171C4.427 0.285 4.6455 0.456 4.8165 0.703L7.0205 3.8095C7.1915 4.047 7.315 4.2655 7.4005 4.4745C7.486 4.674 7.5335 4.8735 7.5335 5.054C7.5335 5.282 7.467 5.51 7.334 5.7285C7.2105 5.947 7.03 6.175 6.802 6.403L6.08 7.1535C5.9755 7.258 5.928 7.3815 5.928 7.5335C5.928 7.6095 5.9375 7.676 5.9565 7.752C5.985 7.828 6.0135 7.885 6.0325 7.942C6.2035 8.2555 6.498 8.664 6.916 9.158C7.3435 9.652 7.7995 10.1555 8.2935 10.659C8.3885 10.754 8.493 10.849 8.588 10.944C8.968 11.3145 8.9775 11.9225 8.5975 12.3025Z"
    fill="#838D98" />
  <path
    d="M18.9722 15.5135C18.9722 15.7795 18.9247 16.055 18.8297 16.321C18.8012 16.397 18.7727 16.473 18.7347 16.549C18.5732 16.891 18.3642 17.214 18.0887 17.518C17.6232 18.031 17.1102 18.4015 16.5307 18.639C16.5212 18.639 16.5117 18.6485 16.5022 18.6485C15.9417 18.8765 15.3337 19 14.6782 19C13.7092 19 12.6737 18.772 11.5812 18.3065C10.4887 17.841 9.3962 17.214 8.3132 16.4255C7.9427 16.15 7.5722 15.8745 7.2207 15.58L10.3272 12.4735C10.5932 12.673 10.8307 12.825 11.0302 12.9295C11.0777 12.9485 11.1347 12.977 11.2012 13.0055C11.2772 13.034 11.3532 13.0435 11.4387 13.0435C11.6002 13.0435 11.7237 12.9865 11.8282 12.882L12.5502 12.1695C12.7877 11.932 13.0157 11.7515 13.2342 11.6375C13.4527 11.5045 13.6712 11.438 13.9087 11.438C14.0892 11.438 14.2792 11.476 14.4882 11.5615C14.6972 11.647 14.9157 11.7705 15.1532 11.932L18.2977 14.1645C18.5447 14.3355 18.7157 14.535 18.8202 14.7725C18.9152 15.01 18.9722 15.2475 18.9722 15.5135Z"
    fill="#838D98" />
</svg>