<svg id="Слой_1" data-name="Слой 1" xmlns="http://www.w3.org/2000/svg" viewBox="0 0 24 21.83"><path d="M23.55,1.38a1.71,1.71,0,0,0-1.72-.13h0C21.13,1.53,2,9.72,1.26,10.06c-.14,0-1.38.51-1.25,1.53A1.87,1.87,0,0,0,1.24,13l4.85,1.66c.32,1.07,1.51,5,1.77,5.87.17.53.43,1.22.9,1.36a1.1,1.1,0,0,0,1.08-.19l3-2.75,4.79,3.73.12.07a2.33,2.33,0,0,0,.93.22,1.85,1.85,0,0,0,.66-.13,2,2,0,0,0,1-1.06l3.58-18.6A1.68,1.68,0,0,0,23.55,1.38ZM10.37,15.27,8.73,19.64,7.1,14.18,19.65,4.9Z" transform="translate(0 -1.08)"/></svg>